<?xml version="1.0" encoding="UTF-8" standalone="no"?>
<svg
   xmlns:dc="http://purl.org/dc/elements/1.1/"
   xmlns:cc="http://creativecommons.org/ns#"
   xmlns:rdf="http://www.w3.org/1999/02/22-rdf-syntax-ns#"
   xmlns:svg="http://www.w3.org/2000/svg"
   xmlns="http://www.w3.org/2000/svg"
   id="svg8"
   version="1.1"
   viewBox="0 0 107.12196 130.92238"
   height="130.92238mm"
   width="107.12196mm">
  <defs
     id="defs2" />
  <metadata
     id="metadata5">
    <rdf:RDF>
      <cc:Work
         rdf:about="">
        <dc:format>image/svg+xml</dc:format>
        <dc:type
           rdf:resource="http://purl.org/dc/dcmitype/StillImage" />
        <dc:title></dc:title>
      </cc:Work>
    </rdf:RDF>
  </metadata>
  <g
     style="display:inline"
     transform="translate(-10.694974,-60.693574)"
     id="layer2">
    <rect
       ry="0"
       y="60.693573"
       x="10.694974"
       height="130.92238"
       width="108.47916"
       id="rect872"
       style="opacity:1;fill:#000000;fill-opacity:1;fill-rule:nonzero;stroke:none;stroke-width:0.26458332;stroke-linecap:square;stroke-linejoin:miter;stroke-miterlimit:4;stroke-dasharray:none;stroke-dashoffset:0;stroke-opacity:0.14367819" />
  </g>
  <g
     style="display:inline"
     transform="translate(-10.694974,-60.693574)"
     id="layer1">
    <g
       id="layer1-6"
       transform="translate(-40.74405,-22.345236)">
      <path
         style="opacity:1;fill:#ffffff;fill-opacity:1;fill-rule:nonzero;stroke:none;stroke-width:0.26458332;stroke-linecap:square;stroke-linejoin:miter;stroke-miterlimit:4;stroke-dasharray:none;stroke-dashoffset:0;stroke-opacity:0.14367819"
         d="m 104.63062,83.039506 c -10.630204,-0.019 -20.286564,0.35067 -30.437424,1.15652 -8.09872,0.64293 -14.744633,1.93442 -18.147733,3.526918 -1.81117,0.84754 -2.52206,1.6732 -2.58279,2.99879 -0.0218,0.47625 -0.14912,0.94501 -0.28318,1.04177 -0.13407,0.0967 -0.25314,1.00756 -0.26459,2.02416 -0.0115,1.01664 -0.10996,1.79346 -0.2191,1.72652 -0.10915,-0.0669 -0.19994,0.62963 -0.20154,1.5477 -0.002,0.91811 -0.0595,2.1454 -0.12868,2.72749 -0.10531,0.886986 -0.0842,0.951246 0.13023,0.396866 0.23898,-0.617606 0.24647,-0.608856 0.11162,0.13229 -0.15731,0.86458 -0.17197,1.24312 -0.0879,2.24896 0.0304,0.3638 -0.0236,1.73302 -0.11989,3.04271 -0.53312,7.25149 -0.43149,33.13541 0.12868,32.78923 0.12844,-0.0794 0.23357,-0.0183 0.23357,0.13589 0,0.15412 -0.14882,0.28199 -0.33073,0.28424 -0.25402,0.003 -0.25706,0.0512 -0.0124,0.20669 0.1752,0.11137 0.34855,0.64524 0.38499,1.1865 0.0364,0.54126 0.16069,0.98391 0.27647,0.98391 0.11578,0 0.21084,0.24556 0.21084,0.5452 0,0.29961 0.11712,0.47202 0.26045,0.38343 0.16237,-0.10033 0.20025,0.16817 0.10025,0.7121 -0.15568,0.8468 -0.14737,0.85691 0.28784,0.34364 0.24678,-0.29104 0.37326,-0.38034 0.28112,-0.19843 -0.0952,0.18788 -0.005,0.33072 0.20774,0.33072 0.2064,0 0.82428,0.52626 1.37253,1.16946 0.57957,0.6799 1.14761,1.11149 1.35754,1.03093 0.199211,-0.0764 0.444711,0.0813 0.54725,0.35192 0.232601,0.6138 0.753001,1.15186 1.114141,1.15186 0.15136,0 0.204239,0.18465 0.117829,0.40981 -0.0864,0.22516 0.0667,0.64318 0.339511,0.92914 0.272869,0.28596 0.734219,0.76391 1.02526,1.06246 0.29105,0.29856 0.54121,0.74375 0.55604,0.98909 0.0729,1.20542 0.13401,1.372 0.5023,1.372 0.218283,0 0.396873,0.10882 0.396873,0.24186 0,0.44177 1.75855,1.99427 3.32279,2.93314 0.84858,0.50932 1.60917,0.93589 1.68982,0.94777 0.59487,0.0875 1.811509,0.4491 2.18075,0.64801 0.62442,0.33637 3.13533,0.26345 5.63893,-0.16383 3.07031,-0.52395 3.66051,-0.63817 4.07779,-0.7865 0.20574,-0.0731 0.80105,-0.19849 1.32292,-0.27852 0.52185,-0.08 2.1861,-0.55211 3.69796,-1.04955 1.51185,-0.49747 3.03361,-0.90488 3.38171,-0.90488 0.75617,0 1.10086,0.69504 0.586519,1.18287 -0.33513,0.31787 -3.983859,1.8991 -8.50749,3.6866 -2.34464,0.92649 -5.84955,1.78956 -7.26725,1.78956 -0.6209,0 -1.12862,0.0682 -1.12862,0.15193 0,0.36417 2.31463,3.16603 4.53151,5.48494 1.79639,1.87905 2.81716,2.71481 4.03024,3.29954 2.10278,1.01359 6.38083,1.68487 9.95082,1.56115 3.09713,-0.10734 3.25263,-0.21048 5.33662,-3.5202 0.736601,-1.16983 1.56417,-2.44769 1.83917,-2.84015 0.51476,-0.73461 0.37259,-1.04394 -0.54416,-1.18234 -0.51883,-0.0783 -1.1044,0.43103 -0.89141,0.77565 0.10992,0.17786 0.0389,0.19363 -0.20102,0.0444 -0.2044,-0.12713 -1.02641,-0.2019 -1.82677,-0.16638 -1.06019,0.047 -1.67861,-0.0735 -2.2779,-0.44443 -0.74707,-0.46242 -0.80777,-0.60028 -0.66145,-1.49966 0.10336,-0.63532 0.40861,-1.17523 0.85214,-1.50635 0.66364,-0.49545 0.75866,-0.49919 2.36006,-0.0889 1.46919,0.3764 3.31186,1.24971 3.6959,1.75133 0.26803,0.35007 1.32292,0.79179 1.32292,0.55395 0,-0.14884 0.44342,-0.14279 1.12448,0.0156 1.967354,0.45728 7.273264,0.37276 9.150864,-0.14573 1.2873,-0.35547 1.76304,-0.39154 2.04742,-0.15555 0.20372,0.1691 0.55036,0.23848 0.7705,0.15403 0.22013,-0.0845 0.40049,-0.0469 0.40049,0.0837 0,0.1306 0.90904,-0.23027 2.02055,-0.80203 2.19364,-1.12837 3.98318,-1.37888 4.59403,-0.64286 0.18115,0.21831 0.23664,0.39741 0.12351,0.39741 -0.11313,0 -0.0195,0.20836 0.20826,0.46302 0.40179,0.44937 0.5575,0.94043 0.49299,1.55493 -0.0632,0.60221 -1.55653,0.9761 -2.7466,0.6873 -1.32685,-0.32199 -3.23784,-0.26363 -4.16357,0.12764 -0.3638,0.15378 -0.76961,0.21564 -0.90124,0.13748 -0.40309,-0.23937 0.11465,0.49048 2.1146,2.98222 2.33477,2.90894 3.21824,3.75595 4.0783,3.91036 1.26523,0.22717 5.17422,0.18486 7.54063,-0.0817 1.30969,-0.14748 2.97655,-0.45903 3.70416,-0.69244 3.24671,-1.04159 6.6255,-4.00714 8.08478,-7.0957 0.90065,-1.90625 0.92556,-2.0333 0.35502,-1.81436 -0.23297,0.0894 -0.50086,0.0501 -0.59531,-0.0873 -0.0945,-0.13734 -0.94547,-0.47548 -1.89136,-0.75189 -3.15053,-0.92064 -11.34173,-4.40722 -13.45551,-5.7273 -0.31537,-0.19696 -0.63167,-0.56663 -0.7028,-0.82167 -0.0711,-0.255 -0.197,-0.70217 -0.27957,-0.99322 -0.28379,-1.00033 0.90959,-0.70334 7.16184,1.78078 4.65196,1.8483 7.76322,2.59996 9.60045,2.31976 0.68607,-0.10464 1.62039,-0.22616 2.07635,-0.27027 0.97161,-0.094 2.51929,-0.83576 2.82205,-1.35236 0.11637,-0.19857 0.37267,-0.36124 0.56948,-0.36124 0.36328,0 1.0093,-1.4288 0.75912,-1.67897 -0.0751,-0.0751 0.11337,-0.29204 0.41858,-0.48265 0.30521,-0.1906 0.55501,-0.61584 0.55501,-0.94464 0,-0.54081 0.26676,-0.7293 0.88056,-0.62219 0.12055,0.0209 0.17498,-0.17304 0.12144,-0.43149 -0.1088,-0.52549 1.69747,-1.63121 1.86139,-1.13948 0.0499,0.14989 0.26109,0.27234 0.46922,0.27234 0.20813,0 0.60949,0.14454 0.89194,0.32091 0.28245,0.1764 0.60469,0.22937 0.71623,0.11782 0.11155,-0.11155 0.0281,-0.31369 -0.18603,-0.44905 -0.24841,-0.15711 -0.27334,-0.24755 -0.0682,-0.25011 0.17678,-0.003 0.45494,0.24445 0.61754,0.54827 0.23148,0.43254 0.44776,0.5144 0.99839,0.37621 0.38676,-0.0971 0.79235,-0.31591 0.90072,-0.48628 0.10837,-0.17036 0.20212,-0.19095 0.20877,-0.0455 0.007,0.14552 0.13521,0.0541 0.28525,-0.2036 0.15004,-0.25773 0.37034,-0.40822 0.4899,-0.33435 0.19457,0.12025 0.56414,-0.77409 1.74666,-4.22455 0.62813,-1.83277 0.52742,-7.34325 -0.15761,-8.62325 -0.15181,-0.28366 -0.19243,-0.65045 -0.0904,-0.81544 0.12216,-0.19765 0.0661,-0.22643 -0.16485,-0.0837 -0.24923,0.15404 -0.30514,0.0983 -0.19326,-0.19328 0.21949,-0.572 -1.01541,-1.68484 -2.4195,-2.18022 -2.23573,-0.7888 -5.07471,-0.45611 -9.05526,1.06093 -3.62155,1.3802 -6.89777,1.81129 -12.392,1.63039 -5.92239,-0.19502 -9.74594,-0.94739 -13.14132,-2.58591 -0.59923,-0.28916 -1.27206,-0.73136 -1.49552,-0.98237 -0.78476,-0.88143 -1.53415,-2.64768 -1.69344,-3.99251 -0.0885,-0.74705 -0.26335,-1.35858 -0.3886,-1.35858 -0.12526,0 -0.22738,-0.2331 -0.22738,-0.51832 0,-0.3751 -0.29063,-0.60584 -1.05058,-0.83351 -0.93609,-0.28046 -1.07584,-0.43273 -1.27899,-1.39941 -0.13713,-0.65257 -0.12854,-1.21547 0.0217,-1.41232 0.13739,-0.18 0.17774,-0.61497 0.0894,-0.96687 -0.13988,-0.55729 -0.0839,-0.62299 0.43357,-0.50694 0.47256,0.10597 0.426,0.0254 -0.22789,-0.39481 -1.05281,-0.67657 -1.21424,-1.34067 -0.63459,-2.60811 0.51963,-1.1362 5.27902,-5.89306 7.19336,-7.18973 1.65455,-1.12072 5.9312,-3.08819 8.11268,-3.73208 6.01083,-1.77422 14.47856,-2.1213 18.13326,-0.74364 3.5316,1.33128 6.02411,3.55185 6.09369,5.42915 0.0201,0.54223 0.13519,1.14271 0.25528,1.33426 0.12009,0.19159 0.16001,0.40632 0.0894,0.47699 -0.14053,0.14052 -3.13758,-1.70825 -4.08967,-2.52285 -0.68474,-0.58584 -3.74513,-1.34586 -5.41156,-1.34358 -3.40501,0.005 -10.46935,1.67373 -12.34653,2.91714 -0.65218,0.43198 -1.30419,0.78546 -1.44901,0.78546 -0.14483,0 -0.18069,0.0834 -0.0791,0.18503 0.10156,0.10157 -0.0468,0.30993 -0.33022,0.46302 -0.28343,0.15309 -1.44851,1.12247 -2.58847,2.15437 -1.13996,1.03193 -2.92235,2.60334 -3.961,3.49229 -1.03868,0.88897 -2.14983,2.03933 -2.4691,2.55592 -0.31928,0.5166 -0.74908,0.93896 -0.95549,0.93896 -0.22053,0 -0.37519,0.26376 -0.37519,0.63976 0,0.3519 -0.0753,0.83547 -0.16691,1.07437 -0.11539,0.3007 0.007,0.47982 0.39687,0.58187 0.30993,0.0811 0.56379,0.25638 0.56379,0.38962 0,0.3492 1.14772,0.73899 1.42112,0.48266 0.12687,-0.11893 0.3826,-0.15812 0.56843,-0.0868 0.18584,0.0713 0.41656,0.003 0.51264,-0.15296 0.0961,-0.15544 0.46541,-0.28268 0.82062,-0.28268 0.35522,0 0.64594,-0.10604 0.64594,-0.23564 0,-0.12959 0.38697,-0.29646 0.85991,-0.37102 1.1535,-0.18193 3.1177,-0.70477 3.77031,-1.00357 0.53852,-0.24656 1.06845,-0.33305 4.69119,-0.76636 3.53171,-0.42241 8.24035,0.3126 11.97756,1.86965 0.43656,0.1819 0.85328,0.35028 0.92604,0.37465 0.0728,0.0243 0.48949,0.19698 0.92605,0.38346 1.03377,0.44154 5.01946,0.4526 6.33759,0.0175 1.18251,-0.39028 2.16761,-1.33794 2.70423,-2.60141 0.23643,-0.55665 0.65567,-0.97586 1.14721,-1.1472 1.25,-0.43575 1.19714,-0.51319 1.39165,2.02467 0.0435,0.56763 -0.0461,0.7706 -0.3147,0.71263 -0.28066,-0.0606 -0.30311,0.006 -0.0894,0.26458 0.30896,0.37354 0.1521,1.71799 -0.2279,1.95286 -0.12814,0.0792 -0.23306,0.43492 -0.23306,0.79013 0,0.3552 -0.14175,0.64542 -0.31472,0.64542 -0.17295,0 -0.0265,0.26789 0.32557,0.59531 0.35205,0.32743 0.73193,0.56555 0.84387,0.52917 0.11196,-0.0364 0.17706,0.0233 0.14469,0.13229 -0.0811,0.27361 0.86294,1.65365 1.13121,1.65365 0.11974,0 0.22234,-0.20836 0.22789,-0.46302 0.006,-0.25466 0.13442,-3.85628 0.28628,-8.00365 0.31811,-8.6864 0.2501,-25.685186 -0.10179,-25.468206 -0.13331,0.0822 -0.15444,-0.28575 -0.0486,-0.85008 0.20191,-1.0763 -0.0671,-4.4314 -0.3421,-4.26587 -0.0924,0.0556 -0.18851,-0.45175 -0.21342,-1.12758 -0.0569,-1.54286 -0.9165,-3.58042 -1.73789,-4.11861 -1.91986,-1.25797 -6.06337,-2.089578 -16.60518,-3.333648 -11.17575,-1.3189 -15.95395,-1.61005 -28.97187,-1.76374 -1.56262,-0.0185 -3.10127,-0.0288 -4.61987,-0.0315 z m 52.47328,15.915818 c 0.024,0.004 0.0526,0.0438 0.0842,0.12298 0.0764,0.191 0.0672,0.41955 -0.0207,0.50747 -0.0879,0.0879 -0.1505,-0.0684 -0.13901,-0.34727 0.008,-0.19264 0.0353,-0.28926 0.0755,-0.28318 z m -81.174374,4.297916 c 1.14219,0.005 4.41743,0.89696 6.86263,1.94561 1.90307,0.81616 1.71177,1.00807 -0.39688,0.39844 -0.65484,-0.18931 -1.90499,-0.5379 -2.77812,-0.77462 -0.87312,-0.23675 -1.93339,-0.6027 -2.35593,-0.81338 -0.42254,-0.21074 -0.98809,-0.38346 -1.25677,-0.38346 -0.26869,0 -0.48834,-0.101 -0.48834,-0.22479 0,-0.10258 0.14983,-0.14881 0.41341,-0.1478 z m -5.80326,1.66346 c 2.88178,0.0127 5.4472,0.33689 7.77058,0.98187 2.59336,0.7199 9.42594,3.7057 11.8985,5.19967 3.76627,2.27566 8.20984,6.67742 8.20984,8.13234 0,1.0305 -1.16971,2.38691 -2.05828,2.38691 -0.60399,0 -0.63597,0.0406 -0.25838,0.33073 0.44843,0.34457 1.52291,3.13851 1.52291,3.95997 0,0.32729 -0.20299,0.4718 -0.66146,0.4718 -0.3663,0 -0.66146,0.15372 -0.66146,0.34417 0,0.44371 -1.37274,2.56683 -1.57768,2.44017 -0.0857,-0.053 -0.149419,0.35277 -0.14211,0.90123 0.0134,1.00512 -0.48381,1.84314 -0.79479,1.33998 -0.0999,-0.16166 -0.46896,-0.10147 -0.96997,0.15761 -4.20059,2.17221 -16.03154,2.66288 -22.29889,0.92501 -0.95326,-0.26434 -1.73323,-0.38632 -1.73323,-0.2708 0,0.67715 6.50017,2.2352 10.18646,2.44171 3.75664,0.21047 10.03639,-0.56375 11.60136,-1.43039 0.26883,-0.14888 0.55862,-0.20103 0.64389,-0.11576 0.67816,0.67816 -4.38626,2.05849 -8.67337,2.36368 -4.45618,0.31721 -8.34584,-0.23981 -14.94896,-2.14095 -1.82523,-0.52552 -5.58454,-0.73097 -6.890543,-0.37621 -0.58834,0.15983 -1.35704,0.5589 -1.70842,0.88625 -0.35137,0.32737 -0.76299,0.60851 -0.91467,0.62529 -0.15169,0.0167 -0.44445,0.0487 -0.65061,0.0708 -0.20615,0.0222 -0.29745,0.1175 -0.203089,0.21188 0.0944,0.0944 -0.0826,0.392 -0.393261,0.66146 -0.70105,0.60801 -0.93356,0.63502 -0.4501,0.0522 0.33691,-0.40616 0.30409,-0.40748 -0.4501,-0.0175 l -0.81287,0.42066 0.0191,-0.90797 h 5.29e-4 c 0.0105,-0.49924 0.11341,-0.90802 0.228931,-0.90847 0.11552,0 0.17505,-0.20196 0.132289,-0.44802 -0.0967,-0.55679 1.834631,-1.72032 2.508371,-1.51104 0.2904,0.0902 0.44189,0.0217 0.39688,-0.17931 -0.0429,-0.19163 0.4712,-0.46754 1.25057,-0.6718 l 1.32291,-0.34675 -1.19062,0.13539 c -0.654849,0.0744 -2.05861,0.54599 -3.11919,1.04852 -1.06058,0.50252 -2.04284,0.91363 -2.18281,0.91363 -0.45246,0 -0.26975,-0.96192 0.27647,-1.45624 0.29193,-0.26419 0.47052,-0.54025 0.39739,-0.61338 -0.0731,-0.0731 0.23009,-0.35367 0.673341,-0.62323 0.443239,-0.26956 0.733469,-0.60706 0.64492,-0.75033 -0.0885,-0.1433 -0.065,-0.2612 0.0527,-0.26149 0.117729,-2.6e-4 0.243799,-0.41653 0.28009,-0.92554 0.0446,-0.62553 -0.0412,-0.90403 -0.264581,-0.85936 -0.20912,0.0418 -0.36205,-0.31814 -0.416,-0.97928 l -0.0853,-1.04489 0.5395,0.64802 c 0.69814,0.83886 0.723391,0.41386 0.0279,-0.47025 -0.29104,-0.37002 -0.52917,-0.53774 -0.52917,-0.37259 0,0.16513 -0.11906,0.30023 -0.26458,0.30023 -0.14552,0 -0.26458,-0.1786 -0.26458,-0.39688 0,-0.21828 -0.1314,-0.39687 -0.29249,-0.39687 -0.16109,0 -0.22206,-0.18447 -0.13539,-0.41029 0.0867,-0.22585 0.0522,-0.34563 -0.0765,-0.26615 -0.35856,0.22162 -0.47501,-0.33348 -0.52969,-2.52748 -0.0409,-1.64166 0.0547,-2.19065 0.51625,-2.97297 0.4615,-0.78216 0.652681,-0.91315 1.03611,-0.70794 0.25868,0.13843 0.51738,0.22606 0.574641,0.19481 0.0573,-0.0313 -0.0496,0.0781 -0.237711,0.24286 -0.22437,0.19661 -0.29078,0.65159 -0.19275,1.32292 0.0822,0.56279 0.18308,1.38882 0.224281,1.83555 0.0412,0.44675 0.27549,1.09833 0.520379,1.44798 0.2449,0.34962 0.44493,0.72724 0.44493,0.8387 0,0.29213 0.87123,1.26659 1.13223,1.26659 0.121391,0 0.58693,0.38695 1.03456,0.8599 0.44763,0.47294 0.736081,0.71847 0.64079,0.5452 -0.26449,-0.48096 1.754523,-0.0867 2.124933,0.41494 0.22573,0.3057 0.39296,0.33589 0.66146,0.11888 0.31108,-0.25143 1.65278,-0.53276 4.85707,-1.01751 2.36933,-0.35846 3.00125,-0.48297 4.22042,-0.83304 3.89638,-1.11879 5.18387,-1.3358 8.215,-1.38387 2.82774,-0.0449 6.22649,0.20626 9.22011,0.68109 0.93973,0.14904 0.9975,0.12289 0.74466,-0.33952 -0.15067,-0.27553 -0.53273,-1.051 -0.84905,-1.72291 -0.31632,-0.67191 -1.39259,-2.10066 -2.39158,-3.175 -0.99898,-1.07434 -1.81911,-2.04266 -1.82263,-2.1518 -0.004,-0.10915 -0.18531,-0.19844 -0.40359,-0.19844 -0.21828,0 -0.39688,-0.11906 -0.39688,-0.26459 0,-0.14552 -0.10851,-0.26458 -0.24133,-0.26458 -0.24423,0 -2.78381,-1.58186 -3.39979,-2.1177 -0.18373,-0.15983 -0.46997,-0.20656 -0.63614,-0.10385 -0.17882,0.11052 -0.22983,0.0697 -0.12506,-0.0997 0.0974,-0.15756 -0.0648,-0.36309 -0.36018,-0.45683 -0.29526,-0.0937 -0.4769,-0.26742 -0.40359,-0.38603 0.0733,-0.11861 -0.014,-0.21008 -0.19431,-0.2036 -0.97453,0.0351 -1.37788,-0.085 -1.02836,-0.30644 0.37081,-0.23497 -1.69092,-1.12638 -5.06842,-2.19107 -1.6956,-0.53451 -8.17241,-1.00316 -6.79907,-0.49196 0.64734,0.24095 0.64467,0.24574 -0.13229,0.20309 -0.43665,-0.0241 -0.95324,0.0544 -1.14773,0.17465 -0.20347,0.12576 -0.47862,0.0934 -0.64803,-0.076 -0.16194,-0.16195 -0.41926,-0.29263 -0.57205,-0.2904 -0.1528,0.003 -0.10296,0.11472 0.1111,0.25011 0.57084,0.36099 0.22483,0.55573 -1.1312,0.6356 -1.209523,0.0713 -1.549203,0.24337 -2.908352,1.47381 -0.624781,0.56563 -0.778691,0.60862 -0.988051,0.27752 -0.386439,-0.61116 -0.302229,-1.09452 0.408241,-2.33732 0.7385,-1.29183 0.792659,-1.47635 0.352949,-1.2046 -0.19077,0.1179 -0.23326,0.0726 -0.11369,-0.12091 0.10531,-0.17037 0.276701,-0.25694 0.381381,-0.19225 0.10468,0.0647 0.602259,-0.30295 1.105349,-0.81751 1.952573,-1.99697 5.309133,-3.04684 9.682623,-3.02773 z m -11.808073,5.32371 c 0.0137,0.0138 -0.0665,0.12091 -0.23099,0.33073 -0.34565,0.44074 -0.56276,0.58105 -0.56276,0.3633 0,-0.0549 0.20835,-0.26332 0.46302,-0.46302 0.20982,-0.16457 0.317071,-0.24466 0.33073,-0.23101 z m 4.265893,0.12094 c -0.0416,0.006 -0.0926,0.0204 -0.15141,0.0429 -0.45837,0.17589 -0.54234,0.36534 -0.16175,0.36534 0.13693,0 0.32192,-0.11764 0.41083,-0.26147 0.0695,-0.1125 0.0272,-0.16539 -0.0977,-0.14676 z m 84.022784,2.52905 c 0.17331,-0.003 0.38858,0.1149 0.47852,0.26043 0.20295,0.3284 0.11153,0.32818 -0.39636,0 h -5.3e-4 c -0.23807,-0.15397 -0.27083,-0.258 -0.0816,-0.26043 z m 2.70578,0.2935 c -0.0919,-0.004 -0.19647,0.013 -0.29198,0.0512 -0.21105,0.0845 -0.14856,0.14697 0.15969,0.15967 0.2789,0.0114 0.43518,-0.051 0.34726,-0.13901 -0.0439,-0.0439 -0.12306,-0.068 -0.21497,-0.0718 z m -67.274454,13.07208 c -2.9989,0.0217 -6.07005,0.17277 -7.44812,0.4408 -2.22643,0.43301 -4.63021,1.40303 -4.63021,1.86862 0,0.1856 0.79603,0.20717 2.44739,0.0661 3.0495,-0.26031 5.15824,-0.33538 12.50157,-0.44491 4.86424,-0.0726 5.95126,-0.019 6.61458,0.324 0.86254,0.44622 1.45521,0.54041 1.45521,0.23152 0,-0.44231 -2.53426,-1.8291 -3.92793,-2.14974 -1.08743,-0.25023 -4.01359,-0.35812 -7.01249,-0.33642 z m 71.235964,0.64233 c -0.003,-0.003 -0.011,0.003 -0.0238,0.0109 -0.31164,0.22254 -1.88554,1.52826 -2.7249,2.26033 -0.71419,0.62291 -0.67442,0.61331 0.39688,-0.0946 0.65485,-0.43267 1.48829,-1.12638 1.85208,-1.54202 0.31833,-0.36369 0.52199,-0.62396 0.49971,-0.6346 z m -25.20724,0.0641 c -1.98016,0.003 -3.97985,0.15338 -5.84254,0.47027 -2.32966,0.3963 -3.85752,0.80881 -4.7625,1.28569 l -1.33222,0.70229 1.45521,0.15451 c 0.80036,0.0852 1.61561,0.11515 1.81177,0.0661 0.19615,-0.0491 0.97006,-0.16198 1.7198,-0.25064 0.74972,-0.0887 1.48229,-0.25001 1.6278,-0.35862 0.36406,-0.27175 2.39085,-0.52281 5.68854,-0.70487 2.59093,-0.14304 4.31022,0.007 8.20209,0.71675 0.80037,0.14592 1.93145,0.31234 2.51354,0.37 l 1.05833,0.1049 -1.02681,-0.53485 c -2.49554,-1.3003 -6.75668,-2.02504 -11.11301,-2.02158 z m -71.037017,0.2191 c -0.0321,0.0114 0.0451,0.1592 0.200501,0.45527 0.25791,0.49149 0.823209,0.83791 0.823209,0.50438 0,-0.0502 -0.255719,-0.31811 -0.56792,-0.59531 -0.28232,-0.25067 -0.423709,-0.37579 -0.45579,-0.36434 z m 95.254657,4.13774 c -3.52288,-0.0193 -10.26567,0.54441 -10.96987,0.91726 -2.47726,1.31165 -9.05505,2.20768 -14.73399,2.0066 -4.22249,-0.14952 -7.13965,-0.66773 -9.06198,-1.60972 -0.72019,-0.35291 -1.25677,-0.49123 -1.25677,-0.32401 0,0.28913 1.92007,1.28735 3.70313,1.92495 0.80312,0.28718 2.22958,0.54676 5.425,0.98806 1.52896,0.21113 7.95858,-0.0986 10.18645,-0.49094 1.23693,-0.2178 2.84426,-0.58256 3.57188,-0.81028 0.72759,-0.22773 2.98979,-0.71176 5.02708,-1.0754 2.03729,-0.36365 4.09024,-0.7664 4.56251,-0.89554 0.69313,-0.18952 1.35167,-0.0634 3.4153,0.65524 1.40611,0.48964 2.64465,1.03249 2.75229,1.20666 0.10764,0.17418 0.44597,0.25157 0.75189,0.17156 0.31775,-0.0831 0.55655,-0.0199 0.55655,0.14729 0,0.20341 0.0949,0.19767 0.3111,-0.0185 0.75625,-0.75623 -2.32015,-2.78252 -4.24057,-2.7931 z m -59.141093,0.18034 c 0.0123,0.003 0.0232,0.008 0.0315,0.0161 0.18348,0.18349 -0.18925,0.68522 -0.50901,0.68522 -0.17544,0 -0.15545,-0.15161 0.0532,-0.40307 0.16107,-0.19407 0.33788,-0.31546 0.42427,-0.29818 z m 65.310223,0.29456 c -0.0479,-0.0177 -0.0816,0.13383 -0.0816,0.40669 0,0.36383 0.0605,0.51264 0.13384,0.33073 0.0734,-0.1819 0.0734,-0.47953 0,-0.66145 -0.0184,-0.0455 -0.0362,-0.07 -0.0522,-0.076 z m -106.750076,1.20044 c -0.145521,0 -0.26459,0.18603 -0.26459,0.41291 0,0.22686 0.119069,0.33851 0.26459,0.24855 0.14552,-0.0899 0.264579,-0.27543 0.264579,-0.41238 0,-0.13692 -0.11906,-0.24908 -0.264579,-0.24908 z m 100.670856,24.13649 c -0.0773,0.004 -0.19383,0.23768 -0.2775,0.57103 -0.0956,0.381 -0.27177,0.69246 -0.39171,0.69246 -0.11993,0 -0.28707,0.20836 -0.37103,0.46303 -0.084,0.25468 -0.51718,0.87974 -0.96273,1.38906 -0.44555,0.50932 -1.30757,1.50135 -1.91565,2.204 -0.60808,0.70266 -1.25419,1.43809 -1.43609,1.63452 -0.1819,0.19645 -0.33073,0.43783 -0.33073,0.53642 0,0.0986 -0.33743,0.61333 -0.74982,1.1436 -0.41238,0.53026 -0.83048,1.18571 -0.92914,1.45675 -0.13661,0.37531 -0.26373,0.42346 -0.53175,0.20103 -0.19357,-0.16066 -0.43569,-0.2082 -0.53847,-0.10544 -0.28615,0.28617 -1.21957,2.47737 -1.21957,2.8629 0,0.18764 -0.10152,0.38092 -0.2253,0.42942 -0.31273,0.12258 -1.53659,2.0955 -2.76263,4.45346 -2.75755,5.30347 -4.7369,8.43125 -6.86779,10.85156 -0.25467,0.28924 -0.46303,0.5938 -0.46303,0.67696 0,0.0831 -0.14882,0.30445 -0.33072,0.49196 -0.18191,0.18752 -1.34278,1.51477 -2.57969,2.94918 -4.63842,5.37885 -7.14375,7.7375 -7.14375,6.72619 0,-0.14552 0.13873,-0.26459 0.30851,-0.26459 0.16977,0 0.23382,-0.0741 0.14262,-0.16536 -0.0912,-0.0912 0.0297,-0.53769 0.26872,-0.99219 0.23905,-0.45447 0.46097,-1.28889 0.49299,-1.85362 0.032,-0.56472 0.15935,-1.10053 0.28267,-1.19062 0.12332,-0.0901 0.25734,-0.32359 0.29818,-0.51885 0.10055,-0.48083 1.45609,-2.1585 1.74408,-2.15852 0.12696,0 0.0829,-0.1786 -0.0982,-0.39688 -0.22756,-0.27419 -0.23774,-0.39687 -0.0326,-0.39687 0.16336,0 0.29714,-0.13251 0.29714,-0.29507 0,-0.16256 0.4803,-0.76223 1.06764,-1.33223 0.5937,-0.57615 1.03427,-1.2379 0.99219,-1.49034 -0.0447,-0.26818 0.0714,-0.42333 0.28318,-0.37878 0.47858,0.10068 1.09658,-0.43566 1.09658,-0.95189 0,-0.34115 -0.0636,-0.3284 -0.35657,0.0724 -0.23012,0.3147 -0.41958,0.38587 -0.53382,0.20101 -0.0973,-0.15751 -0.0559,-0.36076 0.092,-0.45215 0.14789,-0.0914 0.26923,-0.27485 0.26923,-0.40722 0,-0.3888 -0.85476,0.0512 -1.62006,0.83405 -0.38988,0.39886 -0.7664,0.66762 -0.83664,0.59737 -0.14816,-0.14816 -2.48004,0.62085 -4.94698,1.63145 -0.9431,0.38635 -1.89559,0.74806 -2.11667,0.80357 -4.03892,1.01401 -5.12536,1.31482 -6.35465,1.75905 -0.80037,0.28925 -1.69332,0.53803 -1.98437,0.55243 -0.763,0.0378 -1.43624,0.96551 -1.44643,1.99368 -0.005,0.48845 0.18351,1.9416 0.4191,3.22924 0.35785,1.95602 0.38291,2.85494 0.15038,5.46222 -0.25603,2.87086 -1.37041,8.03116 -2.30787,10.68824 -0.49941,1.41544 -0.46314,1.96591 0.0517,0.78444 0.21787,-0.49999 0.47571,-0.78367 0.57361,-0.63098 0.6019,0.93874 2.77771,0.49681 6.62079,-1.34461 2.48145,-1.18901 5.66652,-4.13891 9.26041,-8.57674 1.18383,-1.46182 2.52067,-3.05313 2.97088,-3.53623 0.45022,-0.48308 1.72894,-1.95006 2.84169,-3.25975 1.11274,-1.30968 2.14439,-2.51312 2.29236,-2.67475 0.14799,-0.16163 0.62643,-0.73935 1.06299,-1.28365 0.43656,-0.5443 0.93971,-1.14496 1.11828,-1.3348 1.04508,-1.11104 5.43933,-6.95979 6.29005,-8.37211 0.14552,-0.24159 0.92935,-1.43296 1.74201,-2.6474 1.73737,-2.59627 4.4757,-7.39711 4.4757,-7.84706 0,-0.17262 0.11906,-0.3142 0.26458,-0.3142 0.14552,0 0.26459,-0.10509 0.26459,-0.23407 0,-0.12901 0.52289,-1.3494 1.1622,-2.71198 1.45284,-3.09655 3.78798,-9.91817 3.4954,-10.21075 -0.009,-0.009 -0.0195,-0.0135 -0.0305,-0.013 z m -88.987844,1.5875 c -0.0369,0.007 0.0202,0.0816 0.15658,0.22585 0.18189,0.19243 0.33363,0.59412 0.33692,0.89244 0.0152,1.36941 6.50934,12.0935 9.27903,15.32311 1.67277,1.95053 3.09236,2.91822 7.7804,5.30045 3.66601,1.86285 3.90523,1.92738 12.30313,3.33365 1.819,0.30459 3.96213,0.67133 4.7625,0.81494 0.80035,0.14359 4.015044,0.33312 7.143754,0.42117 3.12869,0.088 5.70894,0.1737 5.73349,0.19015 0.12706,0.0851 2.84592,-0.0403 4.58526,-0.21134 h 5.3e-4 c 2.24136,-0.2204 4.47066,-0.77825 9.26042,-2.31718 5.12848,-1.64777 6.36761,-2.30772 9.67693,-5.15215 2.73646,-2.35204 5.77198,-6.81877 7.12825,-10.48928 0.58997,-1.59665 1.09328,-2.80331 1.65106,-3.95946 0.0527,-0.10914 0.0344,-0.19844 -0.0403,-0.19844 -0.0746,0 -1.11559,1.45852 -2.31355,3.24115 -1.32266,1.96821 -3.06821,4.12977 -4.44418,5.50354 -1.98013,1.977 -2.63303,2.43996 -5.17642,3.66956 -1.60074,0.77385 -3.14854,1.6202 -3.43959,1.881 -1.10451,0.98984 -5.84358,1.68281 -14.55208,2.12752 -9.86876,0.504 -20.622303,-0.20045 -29.201323,-1.91254 -2.57084,-0.51306 -3.04847,-0.68808 -3.28404,-1.2051 -0.15159,-0.33269 -0.43501,-0.60513 -0.62993,-0.60513 -0.19492,0 -0.3545,-0.12597 -0.3545,-0.28009 0,-0.15409 -0.11051,-0.21135 -0.24598,-0.12763 -0.13546,0.0837 -0.32301,0.0283 -0.41651,-0.12298 -0.0935,-0.15129 -0.94377,-0.6263 -1.88981,-1.05524 -2.3744,-1.07659 -4.68323,-3.49517 -7.70548,-8.07135 -3.38992,-5.13286 -4.29431,-6.38461 -4.29431,-5.94744 0,0.23646 -0.1529,0.15825 -0.41032,-0.20928 -0.22575,-0.32229 -0.67222,-0.72025 -0.99219,-0.88469 -0.23982,-0.12327 -0.37084,-0.18267 -0.40772,-0.17521 z m -2.700613,3.13058 c -0.176999,-0.009 -0.25424,0.12525 -0.14625,0.40669 0.089,0.2318 0.23646,0.73782 0.32815,1.12448 0.0917,0.38666 0.3156,0.88191 0.497121,1.10019 0.181522,0.21828 0.413022,0.694 0.514702,1.0578 0.31884,1.14078 3.24419,6.7749 5.08341,9.79012 0.57697,0.94588 1.47256,2.49369 1.99006,3.43958 2.63547,4.8172 4.45304,7.70412 6.80682,10.81226 0.8117,1.07183 1.65447,2.21636 1.87275,2.54352 0.58492,0.87667 2.71372,3.68869 2.90887,3.84215 0.0925,0.0728 0.55338,0.69784 1.02371,1.38906 0.47033,0.69122 0.96838,1.25677 1.10691,1.25677 0.13853,0 0.25167,0.14134 0.25167,0.31419 0,0.30816 1.96285,2.96175 3.03082,4.09795 0.29784,0.31684 0.66011,0.70223 0.80563,0.85627 0.14552,0.15407 0.8599,0.8342 1.5875,1.51154 0.7276,0.67733 1.29367,1.33376 1.25729,1.45883 -0.0364,0.12507 0.0366,0.22789 0.16278,0.22789 0.12618,0 0.55114,0.48567 0.94413,1.07952 0.43834,0.66236 0.85584,1.0255 1.08004,0.93946 0.2383,-0.0914 0.31453,-0.007 0.21859,0.24342 -0.0809,0.21087 -0.009,0.38343 0.15968,0.38343 0.16881,0 0.73168,0.28818 1.25057,0.64079 0.51889,0.35259 1.10746,0.57785 1.30845,0.50073 0.20098,-0.0771 0.36535,-0.0214 0.36535,0.12351 0,0.14491 0.4296,0.3439 0.954461,0.44235 0.524849,0.0985 1.26901,0.3088 1.65365,0.46715 0.84055,0.3461 0.956899,0.38227 2.20917,0.69453 0.690443,0.17219 1.011103,0.1556 1.084683,-0.0558 0.0575,-0.1651 0.19284,0.0954 0.30128,0.57878 0.37922,1.69026 0.40026,0.65357 0.0289,-1.42627 -0.20606,-1.15421 -0.73987,-3.72083 -1.18649,-5.70404 -0.937954,-4.16497 -1.101044,-8.52284 -0.414964,-11.07893 0.654064,-2.43676 0.534124,-3.48088 -0.56637,-4.94024 -0.52964,-0.70239 -0.99579,-1.31628 -1.0356,-1.36427 -0.0398,-0.048 -0.40517,0.13059 -0.81235,0.39687 -0.40719,0.2663 -0.65868,0.35105 -0.55862,0.18862 0.24532,-0.3982 -3.32964,-1.74802 -7.28845,-2.75177 -3.36728,-0.85378 -6.07107,-2.01546 -8.56123,-3.67833 -2.02282,-1.3508 -3.0055,-1.745 -3.0055,-1.20562 0,0.21468 0.11907,0.39015 0.26458,0.39015 0.14553,0 0.26458,0.15642 0.26458,0.34727 0,0.19087 0.2679,0.63455 0.59532,0.986 0.32742,0.35145 0.60547,0.70104 0.61805,0.77722 0.11628,0.70479 1.51187,3.44577 1.75441,3.44577 0.10483,0 0.11415,0.19812 0.0212,0.44029 -0.1136,0.29605 -0.0675,0.37772 0.14056,0.24908 0.19693,-0.12171 0.30954,0 0.30954,0.33796 0,0.29106 0.14092,0.6165 0.31316,0.72297 0.21528,0.13303 0.15326,0.25604 -0.19844,0.39378 -0.48271,0.18902 -0.47944,0.20103 0.0517,0.21857 0.30961,0.0103 0.72632,0.22043 0.92604,0.46665 0.28485,0.35118 0.28764,0.402 0.0129,0.23667 -0.29063,-0.17487 -0.29063,-0.10682 0,0.39893 0.19264,0.33526 0.56936,0.85344 0.83716,1.15189 0.2678,0.29845 0.67714,0.9769 0.91002,1.50739 0.25823,0.58825 0.5587,0.91255 0.76998,0.83148 0.22859,-0.0877 0.34623,0.0922 0.34623,0.52864 0,0.3638 0.1786,0.73014 0.39688,0.81391 0.21828,0.0838 0.39687,0.27604 0.39687,0.42738 0,0.51821 -0.90557,-0.28808 -1.98437,-1.76684 -0.58208,-0.79787 -1.38524,-1.84247 -1.78542,-2.32129 -0.40019,-0.47882 -0.72812,-0.98126 -0.72812,-1.11673 0,-0.13546 -0.35719,-0.58893 -0.79375,-1.00719 -0.43656,-0.41825 -0.79375,-0.96006 -0.79375,-1.20404 0,-0.24397 -0.2724,-0.7276 -0.60565,-1.07487 -0.76363,-0.79576 -1.64684,-2.15635 -1.56942,-2.41744 0.0324,-0.10914 -0.0376,-0.19844 -0.15554,-0.19844 -0.11793,0 -0.9216,-0.96872 -1.78594,-2.15284 -0.86434,-1.18412 -1.88018,-2.46404 -2.25723,-2.84428 -0.68065,-0.68635 -3.42706,-4.72778 -4.23333,-6.22958 -0.75339,-1.4033 -1.01057,-1.0137 -0.28422,0.43045 0.98141,1.9513 2.95194,4.97541 3.24218,4.97541 0.13248,0 0.24133,0.16256 0.24133,0.36123 0,0.19865 0.24667,0.6749 0.54828,1.05834 0.79017,1.00454 0.40894,0.85725 -0.76377,-0.29509 -1.0189,-1.00116 -3.2241,-3.81315 -3.2241,-4.11136 0,-0.0886 -0.37907,-0.72282 -0.84232,-1.40923 -0.86398,-1.28016 -2.17814,-3.61828 -4.51859,-8.03931 -1.39404,-2.63334 -2.12569,-3.78193 -2.90418,-4.56044 -0.290683,-0.29067 -0.567153,-0.44267 -0.744143,-0.45164 z m 37.202893,2.55902 c -0.0537,0.003 -0.0904,0.0308 -0.108,0.0837 -0.19909,0.59727 3.154414,2.64109 4.311364,2.62773 0.29885,-0.003 -0.11121,-0.27919 -0.91157,-0.61288 -0.80036,-0.33369 -1.868124,-0.99771 -2.372464,-1.47587 -0.44055,-0.41767 -0.7582,-0.63143 -0.91933,-0.6227 z m 12.418884,0.48834 c -0.0772,0.005 -0.257,0.0917 -0.49557,0.24805 -0.38172,0.25011 -0.69402,0.50469 -0.69402,0.56584 0,0.1914 1.01942,-0.42423 1.2082,-0.72967 0.037,-0.0599 0.0277,-0.087 -0.0186,-0.0842 z m -1.92753,1.19063 c -0.10283,-0.003 -0.25658,0.0768 -0.39119,0.21238 -0.25936,0.2613 -0.22877,0.29189 0.14831,0.1483 0.26094,-0.0994 0.40754,-0.2477 0.32608,-0.32917 -0.0204,-0.0204 -0.0489,-0.0305 -0.0832,-0.0315 z m -2.48667,0.9317 c -0.21262,0.004 -0.4628,0.0143 -0.74414,0.031 -2.58465,0.15457 -2.96385,0.2984 -0.79375,0.30128 0.94589,0 1.95792,-0.0926 2.24896,-0.20878 0.22508,-0.0898 -0.0732,-0.13499 -0.71107,-0.12351 z m -2.0221,3.94603 c -0.28081,0.0315 -0.54901,0.23884 -1.0542,0.71519 -0.50735,0.47839 -0.82661,0.70255 -0.70951,0.49816 0.13524,-0.23604 0.11081,-0.30864 -0.0667,-0.19894 -0.59299,0.36647 -3.533654,4.75059 -3.325894,4.95834 0.42677,0.42678 10.556204,0.63641 10.811234,0.22376 0.20481,-0.33139 -2.41694,-4.28781 -3.57963,-5.40173 -0.43856,-0.42016 -0.79737,-0.68498 -0.79737,-0.58859 0,0.0964 -0.31724,0.0549 -0.70486,-0.0925 -0.23159,-0.0881 -0.40461,-0.13259 -0.5731,-0.11369 z m 26.65161,11.83338 c -0.0607,0 -0.13942,0.003 -0.23565,0.0114 -0.43011,0.0387 -0.68659,0.24258 -0.73845,0.58807 -0.0706,0.4704 -0.0414,0.48249 0.26199,0.10903 0.18773,-0.23106 0.52018,-0.49551 0.73846,-0.58806 0.17392,-0.0737 0.15578,-0.11763 -0.0264,-0.12041 z m -31.756724,4.55685 c -0.12486,-0.0185 -0.16719,0.0343 -0.0977,0.14676 0.15538,0.25141 0.65991,0.3719 0.65991,0.15762 0,-0.0572 -0.18499,-0.17484 -0.41083,-0.26149 -0.0589,-0.0225 -0.10979,-0.0367 -0.15141,-0.0429 z m 4.773874,0.11988 c -0.33478,-0.006 -0.68942,0 -1.03663,0.0222 -0.29104,0.0183 -1.0593,0.0559 -1.70687,0.0837 -1.813164,0.0776 -1.063974,0.39251 1.57458,0.66196 3.17002,0.32375 5.99084,0.35057 5.29166,0.0501 v 0 c -0.29104,-0.12507 -0.98308,-0.23574 -1.53737,-0.24598 -0.55429,-0.0103 -0.94028,-0.12756 -0.85783,-0.26096 0.10084,-0.16317 -0.72321,-0.29271 -1.72754,-0.31057 z m -5.719034,1.46346 c 0.10712,-0.0124 0.34863,0.15539 0.57981,0.41085 0.5626,0.62166 0.47153,0.66942 -0.24392,0.12816 -0.28042,-0.21217 -0.44825,-0.44677 -0.3731,-0.52194 0.009,-0.009 0.0219,-0.0154 0.0372,-0.0172 z m 13.036414,1.31157 c 0.0706,-0.0109 0.11265,0.0212 0.11265,0.0987 0,0.14777 -0.17859,0.3374 -0.39687,0.42116 -0.21828,0.0838 -0.39688,0.11084 -0.39688,0.0605 0,-0.0504 0.1786,-0.24 0.39688,-0.42116 0.11437,-0.0949 0.21359,-0.14835 0.28422,-0.15915 z"
         id="rect4640" />
    </g>
  </g>
</svg>
